<?xml version="1.0" standalone="no"?><!DOCTYPE svg PUBLIC "-//W3C//DTD SVG 1.1//EN" "http://www.w3.org/Graphics/SVG/1.1/DTD/svg11.dtd"><svg t="1770876397876" class="icon" viewBox="0 0 1024 1024" version="1.1" xmlns="http://www.w3.org/2000/svg" p-id="1205" width="256" height="256" xmlns:xlink="http://www.w3.org/1999/xlink"><path d="M349.327719 285.592203s-118.448655-178.840702 62.787369-178.840702c53.275945 0 99.884912 47.567096 99.884912 47.567095s37.097544-47.567096 120.814035-47.567095 123.66846 81.810214 41.858246 178.840702" fill="#FC1717" p-id="1206"></path><path d="M689.932476 298.457076l-30.52039-25.729747c35.350955-41.928109 48.385497-84.335283 34.86191-113.42846-9.631189-20.709552-32.027446-32.586355-61.459961-32.586354-71.061209 0-103.038752 37.40694-105.114698 39.932007l-13.912826 18.50386-16.038675-16.857076c-0.379259-0.38924-41.598752-41.578791-85.632748-41.578791-40.321248 0-65.731618 9.221988-75.522495 27.406471-10.918674 20.28039-3.113918 50.81076 5.349551 72.84772 10.160156 26.448343 23.903314 47.407407 24.043041 47.616998l-33.294971 22.026978c-0.648733-0.97809-15.95883-24.242651-27.715867-54.563431-16.946901-43.71462-18.154542-79.654425-3.573021-106.791423 17.276257-32.157193 54.523509-48.465341 110.713762-48.465341 42.087797 0 79.454815 24.492164 99.25614 40.37115 19.751423-16.387992 59.284211-40.37115 121.442807-40.37115 44.942222 0 81.450916 20.819337 97.659259 55.681248 20.549864 44.203665 5.768733 101.062612-40.540818 155.985341z" p-id="1207"></path><path d="M932.458791 450.150799H91.541209V265.631189h840.907602v184.51961z m-800.995555-39.922027h761.063548V305.553216H131.463236v104.675556z" p-id="1208"></path><path d="M782.910877 937.209513H256.309396c-61.479922 0-111.492242-50.01232-111.492242-111.492242V415.937622h749.585965v409.779649c0 61.479922-50.01232 111.492242-111.492242 111.492242zM184.739181 455.859649v369.857622c0 39.462924 32.10729 71.570214 71.570215 71.570214h526.601481c39.462924 0 71.570214-32.10729 71.570215-71.570214V455.859649H184.739181zM492.038986 154.318596h39.922028v131.273607h-39.922028z" p-id="1209"></path><path d="M492.038986 430.189786h39.922028v487.058713h-39.922028z" p-id="1210"></path></svg>